<?xml version="1.0" standalone="no"?>
<!DOCTYPE svg PUBLIC "-//W3C//DTD SVG 20010904//EN"
 "http://www.w3.org/TR/2001/REC-SVG-20010904/DTD/svg10.dtd">
<svg version="1.0" xmlns="http://www.w3.org/2000/svg"
 width="1778.000000pt" height="438.000000pt" viewBox="0 0 1778.000000 438.000000"
 preserveAspectRatio="xMidYMid meet">
<metadata>
Created by potrace 1.15, written by Peter Selinger 2001-2017
</metadata>
<g transform="translate(0.000000,438.000000) scale(0.100000,-0.100000)"
fill="#000000" stroke="none">
<path d="M1940 4067 c-27 -9 -40 -23 -58 -61 -28 -57 -24 -78 21 -131 31 -36
37 -38 82 -37 60 3 90 21 110 68 24 58 19 86 -23 132 -42 46 -67 51 -132 29z"/>
<path d="M2473 4070 c-45 -10 -59 -24 -78 -75 -15 -38 -15 -46 -2 -71 8 -16
27 -40 41 -53 22 -21 32 -23 78 -18 60 7 81 26 99 87 10 34 9 43 -10 74 -39
62 -62 72 -128 56z"/>
<path d="M1491 3974 c-33 -42 -28 -96 11 -129 26 -22 38 -25 67 -20 48 9 71
34 77 81 4 32 1 44 -21 67 -36 38 -104 39 -134 1z"/>
<path d="M2913 3915 c-12 -8 -27 -31 -33 -50 -10 -31 -9 -40 9 -69 12 -19 28
-37 37 -40 57 -22 121 14 130 75 8 51 -33 99 -85 99 -20 0 -46 -7 -58 -15z"/>
<path d="M2100 3713 c-35 -7 -50 -21 -71 -71 -26 -60 -24 -81 11 -130 34 -45
57 -57 110 -53 63 4 91 21 111 68 25 60 24 92 -6 134 -43 59 -69 67 -155 52z"/>
<path d="M1165 3687 c-20 -16 -28 -35 -32 -67 -4 -41 -1 -48 28 -79 31 -30 37
-33 78 -27 53 7 67 18 87 64 17 41 11 67 -24 105 -34 36 -98 38 -137 4z"/>
<path d="M1608 3680 c-14 -11 -31 -39 -38 -65 -12 -43 -11 -46 15 -81 36 -48
64 -59 116 -48 50 11 78 44 85 100 5 33 1 45 -26 77 -28 33 -36 37 -79 37 -33
0 -56 -6 -73 -20z"/>
<path d="M3365 3677 c-17 -14 -28 -36 -32 -63 -4 -33 -1 -45 22 -72 22 -27 34
-32 68 -32 45 1 67 13 85 47 20 36 14 79 -14 112 -33 39 -89 43 -129 8z"/>
<path d="M868 3656 c-23 -17 -39 -61 -31 -83 26 -73 115 -87 148 -22 21 40 19
62 -10 93 -27 29 -77 35 -107 12z"/>
<path d="M2582 3640 c-46 -11 -66 -32 -87 -94 l-19 -55 28 -39 c53 -76 70 -83
168 -67 43 8 64 33 88 105 15 47 9 64 -45 123 -36 39 -61 44 -133 27z"/>
<path d="M15585 3559 c-55 -10 -115 -21 -132 -24 l-33 -6 0 -1137 c0 -1212 0
-1207 49 -1316 24 -55 91 -130 145 -161 56 -33 171 -63 271 -71 98 -8 84 -26
113 153 l19 111 -36 7 c-88 15 -139 36 -172 69 -68 70 -63 -8 -67 1254 l-3
1142 -27 -1 c-15 -1 -72 -9 -127 -20z"/>
<path d="M3067 3520 c-61 -11 -70 -18 -92 -83 -22 -66 -17 -91 34 -146 39 -42
41 -43 88 -37 80 11 99 23 122 76 28 66 26 90 -10 136 -52 68 -54 68 -142 54z"/>
<path d="M12810 3435 c-52 -16 -107 -65 -126 -112 -32 -75 -8 -199 47 -250
104 -95 298 -52 340 76 19 58 13 146 -13 193 -45 81 -155 122 -248 93z"/>
<path d="M871 3351 c-32 -9 -60 -48 -67 -92 -5 -31 -1 -41 26 -72 28 -32 38
-37 75 -37 62 0 75 8 96 57 26 60 25 67 -17 113 -37 41 -58 47 -113 31z"/>
<path d="M1777 3350 c-61 -11 -79 -27 -105 -95 -25 -64 -22 -73 32 -139 l40
-49 69 6 c83 7 99 19 125 97 18 52 19 60 5 89 -18 36 -87 102 -106 100 -6 -1
-34 -5 -60 -9z"/>
<path d="M1284 3341 c-44 -11 -54 -19 -70 -57 -23 -55 -18 -89 20 -128 27 -29
41 -36 72 -36 53 0 86 19 106 60 28 56 23 87 -21 131 -39 39 -51 43 -107 30z"/>
<path d="M3776 3335 c-38 -38 -25 -105 24 -120 32 -10 77 13 91 46 10 26 9 34
-8 57 -24 33 -82 42 -107 17z"/>
<path d="M8170 3333 c-536 -94 -901 -530 -938 -1122 -29 -462 86 -839 332
-1084 217 -218 520 -321 896 -304 145 7 278 26 405 58 84 22 221 75 230 90 4
6 -70 265 -79 276 -1 1 -36 -11 -77 -28 -40 -17 -126 -44 -189 -61 -96 -25
-141 -30 -275 -35 -178 -6 -267 4 -376 42 -330 115 -510 437 -510 914 0 354
90 599 288 781 74 68 203 137 308 165 80 21 281 30 380 17 100 -14 236 -53
339 -98 44 -19 81 -32 84 -30 6 7 92 256 92 267 0 6 -33 26 -73 44 -227 105
-589 152 -837 108z"/>
<path d="M2230 3319 c-30 -5 -62 -17 -71 -27 -21 -23 -59 -119 -59 -149 0 -31
86 -141 115 -149 24 -6 140 13 166 27 17 9 69 130 69 161 0 18 -59 102 -92
131 -22 18 -44 20 -128 6z"/>
<path d="M5515 3309 c-116 -8 -313 -35 -341 -46 -12 -4 -14 -199 -14 -1199 l0
-1194 170 0 170 0 0 475 0 475 249 0 248 0 80 -102 c174 -223 377 -530 493
-745 l55 -102 183 -1 c132 0 182 3 182 12 0 17 -106 214 -190 353 -98 164
-214 334 -334 494 -56 74 -104 140 -108 146 -5 8 13 20 50 35 212 87 363 249
418 451 28 99 25 310 -4 412 -84 295 -319 466 -723 527 -101 15 -437 21 -584
9z m510 -300 c182 -22 311 -83 385 -181 51 -68 71 -129 77 -235 16 -269 -92
-405 -369 -464 -74 -16 -146 -22 -355 -26 l-263 -6 0 456 0 456 28 4 c60 9
413 6 497 -4z"/>
<path d="M9310 3150 l0 -150 380 0 380 0 0 -1065 0 -1065 170 0 170 0 0 1065
0 1065 380 0 380 0 0 150 0 150 -930 0 -930 0 0 -150z"/>
<path d="M3481 3274 c-29 -21 -54 -79 -45 -107 3 -12 18 -34 32 -49 21 -23 34
-28 71 -28 52 1 76 15 91 54 17 47 12 80 -19 114 -24 25 -38 32 -68 32 -21 0
-49 -7 -62 -16z"/>
<path d="M527 3263 c-28 -31 -30 -66 -7 -96 29 -37 80 -37 109 -1 26 34 26 54
0 88 -24 31 -77 36 -102 9z"/>
<path d="M2702 3231 c-23 -4 -46 -12 -51 -17 -14 -14 -61 -135 -61 -155 0 -10
23 -46 51 -80 l52 -62 74 7 c41 4 83 12 94 19 26 16 73 139 66 169 -4 13 -27
47 -52 76 -51 57 -65 60 -173 43z"/>
<path d="M3200 3087 c-69 -11 -83 -24 -110 -97 l-22 -59 20 -33 c12 -18 33
-46 48 -62 26 -27 30 -28 97 -23 50 3 74 10 87 23 21 23 50 96 50 128 0 27
-72 122 -97 128 -10 2 -43 0 -73 -5z"/>
<path d="M1419 2971 c-61 -9 -73 -20 -105 -101 l-27 -70 26 -37 c64 -94 69
-98 136 -96 98 4 124 20 151 94 13 35 23 72 23 82 -2 22 -78 123 -99 131 -18
7 -39 6 -105 -3z"/>
<path d="M980 2963 c-61 -10 -79 -24 -99 -79 -24 -63 -19 -83 32 -138 34 -36
36 -37 89 -30 74 9 84 17 107 79 24 63 19 83 -37 143 -29 31 -39 34 -92 25z"/>
<path d="M3873 2950 c-23 -9 -53 -67 -53 -101 0 -10 14 -34 31 -54 25 -28 38
-35 68 -35 52 0 83 20 99 62 17 45 11 75 -22 111 -26 29 -77 35 -123 17z"/>
<path d="M547 2928 c-34 -31 -50 -83 -36 -111 26 -50 51 -67 98 -67 52 1 76
15 91 54 17 47 12 80 -19 114 -38 41 -96 45 -134 10z"/>
<path d="M1909 2930 c-26 -4 -55 -13 -66 -18 -21 -12 -73 -133 -73 -171 0 -26
80 -135 112 -152 24 -13 167 6 192 25 20 15 66 133 66 169 0 27 -56 109 -99
145 -16 13 -61 14 -132 2z"/>
<path d="M3518 2891 c-13 -11 -30 -38 -38 -61 -12 -37 -12 -45 5 -77 30 -56
62 -75 110 -67 59 9 75 21 97 71 23 53 19 77 -22 121 -27 27 -38 32 -79 32
-33 0 -56 -6 -73 -19z"/>
<path d="M2417 2876 c-52 -8 -84 -19 -96 -32 -22 -24 -71 -146 -71 -178 0 -27
99 -160 127 -170 23 -9 185 13 205 28 20 15 78 157 78 190 0 43 -120 178 -155
175 -5 -1 -45 -7 -88 -13z"/>
<path d="M2896 2769 c-27 -4 -57 -16 -67 -26 -19 -20 -69 -137 -69 -163 0 -23
89 -136 118 -149 24 -12 150 2 183 20 15 8 79 150 79 176 0 13 -73 110 -102
136 -22 18 -60 20 -142 6z"/>
<path d="M14045 2730 c-55 -4 -129 -13 -165 -19 -73 -13 -220 -51 -220 -57 0
-10 31 -222 36 -242 3 -18 9 -22 22 -17 51 20 213 48 322 55 205 14 318 -9
408 -85 73 -61 122 -205 122 -360 0 -73 -1 -75 -22 -70 -99 22 -135 28 -221
35 -265 22 -552 -48 -688 -169 -139 -122 -196 -315 -155 -521 24 -118 67 -203
137 -272 132 -129 355 -188 654 -174 149 7 454 40 547 59 l63 13 3 569 c2 361
-1 610 -8 678 -26 262 -123 417 -316 508 -133 63 -304 86 -519 69z m475 -1042
l45 -14 3 -271 2 -271 -22 -7 c-13 -4 -114 -9 -224 -12 -166 -5 -215 -3 -276
11 -106 24 -176 68 -211 133 -34 63 -45 158 -27 231 22 96 126 179 260 209 74
17 388 11 450 -9z"/>
<path d="M16860 2734 c-180 -19 -300 -58 -391 -126 -103 -78 -158 -159 -184
-270 -43 -182 4 -351 128 -463 68 -62 152 -108 357 -195 344 -147 421 -210
421 -350 1 -95 -42 -153 -141 -192 -46 -17 -83 -22 -215 -26 -187 -5 -281 9
-432 64 -53 19 -98 32 -101 30 -2 -3 -17 -65 -32 -138 -21 -98 -26 -135 -17
-140 19 -11 197 -67 252 -78 86 -17 382 -24 475 -11 192 28 317 78 408 165 97
92 131 183 132 347 0 145 -34 241 -117 330 -81 86 -173 135 -489 258 -216 84
-293 147 -313 255 -11 58 6 135 35 167 60 66 166 99 321 99 123 0 222 -16 334
-53 41 -14 75 -24 76 -23 8 7 57 266 52 271 -12 12 -152 45 -246 59 -109 16
-260 25 -313 20z"/>
<path d="M11835 2719 c-111 -11 -207 -30 -352 -70 l-113 -31 0 -874 0 -874
160 0 160 0 0 764 c0 720 1 765 18 770 150 44 373 51 533 16 55 -12 102 -20
103 -19 5 7 56 272 53 275 -2 2 -50 13 -108 24 -122 24 -325 33 -454 19z"/>
<path d="M12720 1780 l0 -910 160 0 160 0 0 910 0 910 -160 0 -160 0 0 -910z"/>
<path d="M3340 2603 c-50 -8 -68 -25 -90 -84 -27 -71 -23 -89 31 -152 l42 -49
61 7 c34 4 71 13 83 21 25 16 66 119 59 148 -3 12 -24 42 -47 69 -42 49 -58
53 -139 40z"/>
<path d="M1122 2560 c-46 -11 -66 -32 -87 -94 -18 -53 -18 -54 4 -89 12 -20
36 -48 53 -62 27 -22 36 -25 82 -19 69 8 95 29 119 97 23 64 20 76 -38 140
-36 39 -61 44 -133 27z"/>
<path d="M1600 2549 c-76 -13 -94 -28 -126 -109 -27 -70 -27 -72 -10 -104 9
-18 35 -52 57 -75 l39 -44 71 7 c101 10 114 18 143 92 34 85 33 107 -11 162
-68 88 -66 87 -163 71z"/>
<path d="M684 2536 c-22 -10 -35 -26 -48 -60 -22 -57 -17 -80 29 -130 34 -38
36 -38 87 -32 62 9 75 18 99 71 26 56 24 72 -17 121 -32 39 -40 44 -77 44 -23
-1 -56 -7 -73 -14z"/>
<path d="M3795 2543 c-61 -8 -83 -23 -104 -73 -31 -71 -27 -95 21 -152 l42
-50 58 5 c32 3 69 12 82 20 31 21 66 114 54 147 -13 38 -83 110 -104 109 -11
-1 -32 -4 -49 -6z"/>
<path d="M4123 2500 c-72 -29 -46 -150 32 -150 42 0 73 26 81 67 5 27 1 37
-24 63 -31 31 -51 35 -89 20z"/>
<path d="M347 2479 c-21 -12 -47 -61 -47 -88 0 -11 12 -33 26 -50 47 -56 130
-37 154 34 10 31 9 40 -9 69 -12 19 -28 37 -37 40 -24 9 -67 7 -87 -5z"/>
<path d="M2064 2468 c-63 -11 -73 -22 -109 -115 -32 -82 -33 -79 49 -177 l40
-49 80 7 c99 8 120 22 152 100 33 82 31 110 -12 165 -69 87 -81 91 -200 69z"/>
<path d="M2590 2399 c-30 -5 -63 -16 -75 -23 -19 -13 -76 -145 -75 -177 0 -23
98 -149 122 -158 33 -12 177 13 197 35 20 21 71 144 71 171 0 17 -81 127 -110
150 -17 14 -52 15 -130 2z"/>
<path d="M3107 2265 c-80 -13 -96 -27 -126 -112 -26 -70 -24 -76 42 -157 l41
-49 68 7 c98 9 113 18 142 92 15 36 26 72 26 82 0 24 -75 124 -103 138 -16 8
-40 8 -90 -1z"/>
<path d="M1323 2201 c-54 -9 -67 -21 -93 -86 -26 -65 -20 -89 36 -150 34 -37
35 -38 92 -32 84 9 92 14 118 74 34 77 32 95 -24 153 -50 51 -54 53 -129 41z"/>
<path d="M3547 2160 c-47 -9 -58 -20 -86 -92 -21 -51 -21 -58 -8 -85 9 -15 31
-45 51 -67 36 -38 36 -38 92 -31 82 10 100 21 123 78 29 68 27 92 -14 147 -46
63 -63 69 -158 50z"/>
<path d="M928 2150 c-52 -9 -72 -31 -99 -102 -21 -58 -22 -62 -5 -92 9 -17 33
-49 52 -70 l35 -39 71 7 c38 3 78 11 88 16 23 12 73 137 66 164 -3 12 -26 45
-51 74 -50 56 -66 60 -157 42z"/>
<path d="M1735 2096 c-38 -6 -75 -15 -81 -19 -7 -4 -28 -48 -49 -99 -30 -75
-35 -96 -26 -115 19 -42 115 -154 136 -159 30 -7 196 23 211 38 23 26 76 178
70 201 -3 13 -32 54 -64 93 -66 78 -75 81 -197 60z"/>
<path d="M3970 2097 c-34 -17 -65 -76 -57 -108 4 -14 18 -38 31 -52 20 -21 34
-27 69 -27 51 0 79 22 97 75 10 31 9 39 -10 70 -34 55 -77 69 -130 42z"/>
<path d="M567 2048 c-17 -6 -33 -23 -42 -45 -23 -56 -19 -85 20 -127 32 -36
37 -37 77 -31 59 10 82 26 97 73 16 47 10 71 -29 111 -30 33 -68 39 -123 19z"/>
<path d="M2260 2049 c-30 -5 -62 -17 -71 -27 -18 -19 -69 -144 -69 -169 0 -21
89 -138 117 -153 26 -15 186 5 203 24 15 19 70 156 70 176 0 17 -90 137 -113
152 -15 10 -67 8 -137 -3z"/>
<path d="M270 1950 c-62 -62 -12 -161 75 -144 37 7 59 30 70 75 10 41 -36 89
-86 89 -25 0 -46 -7 -59 -20z"/>
<path d="M2795 1898 c-33 -5 -67 -16 -76 -24 -9 -8 -28 -45 -43 -83 -32 -82
-29 -93 47 -175 l45 -48 64 7 c35 4 74 12 88 18 29 14 70 93 78 149 4 33 -1
45 -38 93 -44 57 -68 76 -92 74 -7 -1 -40 -6 -73 -11z"/>
<path d="M1299 1800 c-26 -4 -55 -13 -66 -18 -22 -12 -73 -134 -73 -174 0 -28
88 -144 118 -155 28 -11 175 15 193 34 17 19 69 144 69 166 0 15 -82 125 -107
145 -18 13 -63 14 -134 2z"/>
<path d="M3285 1751 c-56 -9 -64 -16 -91 -78 -32 -71 -30 -87 11 -144 48 -65
80 -73 178 -48 34 9 42 17 63 65 35 79 32 101 -22 162 -48 55 -54 57 -139 43z"/>
<path d="M3682 1709 c-36 -11 -68 -54 -78 -106 -6 -34 16 -82 56 -118 24 -21
83 -22 133 -2 25 11 36 25 51 66 22 63 17 85 -30 134 -39 40 -66 45 -132 26z"/>
<path d="M900 1674 c-84 -13 -96 -22 -124 -85 -14 -33 -26 -71 -26 -84 0 -13
21 -49 47 -80 l46 -57 76 6 c44 4 83 13 92 22 18 16 59 116 59 143 0 24 -70
117 -98 130 -23 11 -27 11 -72 5z"/>
<path d="M2002 1670 c-46 -11 -66 -32 -87 -93 -23 -67 -17 -90 39 -151 l45
-48 58 7 c88 10 104 22 131 92 29 74 26 92 -29 156 -37 43 -44 47 -82 46 -23
-1 -57 -5 -75 -9z"/>
<path d="M3998 1663 c-49 -57 -50 -103 -3 -150 32 -32 40 -35 76 -30 48 6 68
21 86 65 16 40 10 67 -25 105 -21 22 -34 27 -72 27 -32 0 -52 -6 -62 -17z"/>
<path d="M469 1595 c-27 -15 -49 -60 -49 -101 0 -13 14 -40 32 -60 31 -35 34
-36 80 -31 62 8 66 11 89 62 22 49 17 73 -26 118 -30 31 -82 36 -126 12z"/>
<path d="M2441 1529 c-24 -4 -49 -13 -56 -19 -15 -12 -55 -119 -55 -145 0 -25
76 -124 103 -134 30 -11 145 13 167 35 10 10 27 44 38 74 23 65 19 82 -39 151
-45 53 -61 57 -158 38z"/>
<path d="M1652 1465 c-40 -6 -79 -18 -86 -26 -17 -16 -66 -135 -66 -157 0 -19
77 -120 106 -138 17 -12 34 -12 97 -3 46 7 82 18 91 28 15 17 66 137 66 157 0
18 -88 128 -113 140 -16 8 -42 8 -95 -1z"/>
<path d="M2921 1400 c-18 -4 -39 -14 -47 -21 -19 -20 -62 -141 -56 -159 9 -28
86 -122 105 -129 26 -10 136 7 163 24 12 8 34 45 49 83 31 79 30 83 -37 165
-38 45 -42 47 -91 46 -29 -1 -67 -5 -86 -9z"/>
<path d="M1203 1310 c-65 -13 -78 -25 -101 -85 -30 -78 -28 -99 16 -155 49
-63 67 -71 137 -60 87 14 91 17 119 81 35 80 33 103 -11 158 -61 76 -67 79
-160 61z"/>
<path d="M3797 1290 c-40 -12 -52 -24 -67 -69 -11 -36 -11 -43 8 -73 23 -37
64 -61 91 -54 9 2 29 7 44 10 20 5 33 17 43 41 22 54 18 83 -20 121 -35 35
-50 39 -99 24z"/>
<path d="M3428 1281 c-49 -10 -62 -22 -83 -77 -21 -57 -15 -83 34 -134 38 -40
41 -41 88 -34 26 3 56 11 66 16 23 12 56 83 57 119 0 46 -73 122 -113 118 -7
-1 -29 -5 -49 -8z"/>
<path d="M2090 1233 c-57 -9 -78 -25 -98 -71 -36 -83 -36 -93 -1 -145 47 -71
67 -81 141 -73 34 4 70 11 79 16 22 12 70 134 62 157 -8 22 -62 93 -83 110
-15 12 -51 14 -100 6z"/>
<path d="M645 1174 c-5 -1 -22 -5 -37 -8 -29 -7 -58 -49 -58 -86 0 -30 27 -66
60 -80 47 -19 94 2 114 51 14 35 14 43 2 68 -20 39 -55 62 -81 55z"/>
<path d="M2559 1090 c-26 -4 -55 -13 -66 -18 -22 -12 -73 -133 -73 -173 0 -25
78 -132 112 -153 25 -15 177 9 199 31 25 27 71 157 63 179 -8 21 -79 111 -103
132 -16 13 -61 14 -132 2z"/>
<path d="M915 1033 c-30 -8 -44 -22 -61 -61 -20 -50 -17 -79 12 -117 29 -39
54 -50 104 -46 47 3 77 24 95 67 23 55 19 80 -21 124 -37 41 -66 48 -129 33z"/>
<path d="M1641 1019 c-56 -11 -64 -19 -94 -100 -30 -78 -24 -98 45 -172 l45
-48 59 7 c104 12 117 22 149 108 l28 76 -25 37 c-14 21 -39 53 -56 71 -33 35
-61 39 -151 21z"/>
<path d="M3050 941 c-51 -10 -60 -18 -86 -78 -35 -77 -32 -103 19 -165 l44
-53 73 2 c43 1 81 8 94 17 23 15 66 112 66 149 0 12 -20 48 -45 80 -43 54 -48
57 -88 56 -23 -1 -58 -4 -77 -8z"/>
<path d="M2152 790 c-46 -11 -66 -32 -87 -94 l-19 -55 29 -41 c47 -68 70 -81
129 -74 68 8 95 29 119 91 24 64 19 86 -32 141 -41 45 -64 50 -139 32z"/>
<path d="M1265 765 c-5 -2 -22 -6 -36 -9 -20 -4 -32 -18 -48 -55 -29 -68 -27
-91 14 -145 36 -46 44 -50 100 -47 67 4 92 19 114 71 12 27 21 59 21 71 0 22
-39 83 -68 107 -14 11 -72 15 -97 7z"/>
<path d="M1780 588 c-75 -12 -93 -27 -120 -98 -22 -60 -23 -64 -6 -94 9 -17
32 -49 52 -70 l35 -38 62 7 c76 8 104 27 128 85 27 68 24 99 -17 150 -47 60
-67 68 -134 58z"/>
<path d="M2727 578 c-20 -7 -35 -24 -48 -55 -30 -70 -25 -96 25 -149 44 -45
45 -45 93 -38 66 9 82 19 104 67 28 62 24 93 -17 143 -33 41 -39 44 -82 43
-26 0 -60 -5 -75 -11z"/>
<path d="M2423 449 c-24 -7 -37 -19 -48 -46 -20 -48 -19 -61 10 -99 31 -41 53
-48 105 -34 32 9 43 18 55 47 22 52 19 71 -19 109 -35 35 -49 38 -103 23z"/>
</g>
</svg>
